<?xml version="1.0" encoding="UTF-8" standalone="no"?>
<!-- Created with Inkscape (http://www.inkscape.org/) -->

<svg
   width="467.99997"
   height="467.99997"
   viewBox="0 0 467.99997 467.99997"
   version="1.1"
   id="svg1"
   xml:space="preserve"
   xmlns="http://www.w3.org/2000/svg"
   xmlns:svg="http://www.w3.org/2000/svg"
   xmlns:rdf="http://www.w3.org/1999/02/22-rdf-syntax-ns#"
   xmlns:cc="http://creativecommons.org/ns#"
   xmlns:dc="http://purl.org/dc/elements/1.1/"><title
     id="title5">Binacle Logo</title><defs
     id="defs1"><filter
       style="color-interpolation-filters:sRGB"
       id="filter28"
       x="-0.06"
       y="-0.06"
       width="1.17"
       height="1.17"><feFlood
         result="flood"
         in="SourceGraphic"
         flood-opacity="0.498039"
         flood-color="rgb(0,0,0)"
         id="feFlood27" /><feGaussianBlur
         result="blur"
         in="SourceGraphic"
         stdDeviation="10.000000"
         id="feGaussianBlur27" /><feOffset
         result="offset"
         in="blur"
         dx="20.000000"
         dy="20.000000"
         id="feOffset27" /><feComposite
         result="comp1"
         operator="in"
         in="flood"
         in2="offset"
         id="feComposite27" /><feComposite
         result="comp2"
         operator="over"
         in="SourceGraphic"
         in2="comp1"
         id="feComposite28" /></filter></defs><g
     id="layer6"
     style="display:none"
     transform="translate(-32,-32)"><rect
       style="display:inline;fill:#6b97bc;fill-opacity:1"
       id="rect30"
       width="512"
       height="512"
       x="0"
       y="0" /></g><g
     id="layer1"
     style="display:inline"
     transform="translate(-32,-32)"><rect
       style="display:inline;fill:#414141;fill-opacity:1;filter:url(#filter28)"
       id="rect5"
       width="400"
       height="400"
       x="56"
       y="56"
       rx="40"
       ry="40" /></g><g
     id="layer2"
     style="display:inline"
     transform="translate(-32,-32)"><rect
       style="display:inline;fill:#ee8800;fill-opacity:1"
       id="rect15"
       width="400"
       height="400"
       x="56"
       y="56"
       rx="40"
       ry="40" /><rect
       style="fill:#325e85;fill-opacity:1"
       id="rect14"
       width="400"
       height="240"
       x="56"
       y="56"
       rx="40"
       ry="40" /><rect
       style="display:inline;fill:#325e85;fill-opacity:1;stroke-width:1.00021"
       id="rect16"
       width="50.02084"
       height="50"
       x="422.62308"
       y="237.98608"
       transform="matrix(0.99958335,0,0,1,-16.436589,8.0139204)" /><rect
       style="display:inline;fill:#325e85;fill-opacity:1;stroke-width:1"
       id="rect17"
       width="50"
       height="50"
       x="56"
       y="246" /></g><g
     id="layer3"
     style="display:inline"
     transform="translate(-32,-32)"><circle
       style="display:inline;fill:#ffffff;fill-opacity:1"
       id="path7"
       cx="256"
       cy="296"
       r="100" /><rect
       style="display:inline;fill:#ffffff;fill-opacity:1;stroke-width:0.946969"
       id="rect7"
       width="80"
       height="240"
       x="156"
       y="56" /><path
       style="display:inline;fill:#325e85;fill-opacity:1"
       id="circle18"
       d="M 256,396 A 100,100 0 0 1 185.28932,366.71068 100,100 0 0 1 156,296 h 100 z" /><path
       style="fill:#325e85;fill-opacity:1"
       id="path18"
       d="m 196,296 a 60,60 0 0 1 60,-60 60,60 0 0 1 60,60 h -60 z" /></g><g
     id="layer4"
     style="display:inline"
     transform="matrix(0.99958335,0,0,1,-48.436589,-23.98608)"><rect
       style="display:inline;fill:#ee8800;fill-opacity:1"
       id="rect1"
       width="120"
       height="120"
       x="352.5835"
       y="47.98608"
       ry="40"
       rx="40" /><rect
       style="display:inline;fill:#ee8800;fill-opacity:1"
       id="rect4"
       width="50"
       height="50"
       x="352.5835"
       y="47.98608" /><rect
       style="display:none;fill:#ee8800;fill-opacity:1"
       id="rect3"
       width="50"
       height="50"
       x="352.5835"
       y="117.98608" /><rect
       style="display:inline;fill:#ee8800;fill-opacity:1"
       id="rect2"
       width="50"
       height="50"
       x="422.63351"
       y="117.98608" /><path
       id="rect6"
       style="display:none;fill:#ef8b01;fill-opacity:1"
       d="m 233.27391,47.98608 -1.44766,0.264457 v 79.735533 c 23.8748,0 40.00104,18.7868 40.00104,40 h 79.83579 l 0.16434,-0.4443 V 87.986082 c 0,-22.159958 -17.8411,-40.000002 -40.00104,-40.000002 z" /></g><metadata
     id="metadata5"><rdf:RDF><cc:Work
         rdf:about=""><dc:title>Binacle Logo</dc:title></cc:Work></rdf:RDF></metadata></svg>
